<svg width="52" height="52" viewBox="0 0 52 52" >
<path d="M23.6854 2.58248C24.4854 0.472508 27.5127 0.472508 28.3152 2.58248L33.49 16.9173C33.6705 17.3842 33.9884 17.7855 34.4017 18.068C34.815 18.3505 35.3042 18.5011 35.8049 18.4997H48.5218C50.8717 18.4997 51.8967 21.4247 50.0492 22.8572L40.9996 30.9995C40.5943 31.3112 40.298 31.7432 40.1534 32.2337C40.0088 32.7241 40.0232 33.2478 40.1947 33.7295L43.4995 47.7368C44.3045 49.9868 41.6996 51.9192 39.7297 50.5343L27.4377 42.7344C27.0168 42.4385 26.5148 42.2798 26.0003 42.2798C25.4858 42.2798 24.9838 42.4385 24.5629 42.7344L12.2709 50.5343C10.3035 51.9192 7.69612 49.9843 8.50108 47.7368L11.8059 33.7295C11.9774 33.2478 11.9918 32.7241 11.8472 32.2337C11.7026 31.7432 11.4063 31.3112 11.001 30.9995L1.95137 22.8572C0.101452 21.4247 1.13141 18.4997 3.4763 18.4997H16.1932C16.6939 18.5014 17.1834 18.351 17.5967 18.0684C18.0101 17.7858 18.3279 17.3844 18.5081 16.9173L23.6829 2.58248H23.6854Z" stroke="currentColor" stroke-width="2" stroke-linecap="round" stroke-linejoin="round"/>
</svg>
